<svg width="22" height="19" viewBox="0 0 22 19" fill="none" xmlns="http://www.w3.org/2000/svg">
<path fill-rule="evenodd" clip-rule="evenodd" d="M6.29299 2.875H18.4766C18.6518 2.87491 18.8268 2.88603 19.0006 2.90828C18.9417 2.49473 18.7997 2.0974 18.583 1.74024C18.3664 1.38308 18.0797 1.07348 17.7402 0.830123C17.4007 0.586761 17.0154 0.414673 16.6076 0.324234C16.1998 0.233796 15.7779 0.226879 15.3673 0.303902L3.51768 2.32695C3.35556 2.35179 3.19166 2.37937 3.02756 2.41H3.01718C2.94476 2.42384 2.87309 2.44023 2.80229 2.45908C1.02135 2.90727 0.5 4.52211 0.5 5.50003V6.62873C0.484601 6.75126 0.476699 6.87524 0.476562 7.00003V16C0.477431 16.7954 0.79378 17.558 1.3562 18.1204C1.91862 18.6828 2.68118 18.9992 3.47656 19H18.4766C19.2719 18.9992 20.0345 18.6828 20.5969 18.1204C21.1593 17.558 21.4757 16.7954 21.4766 16V7.00003C21.4757 6.20465 21.1593 5.44209 20.5969 4.87967C20.0345 4.31725 19.2719 4.0009 18.4766 4.00003H6.5C5.7064 4.00003 5.61943 3.03822 6.29299 2.875ZM16.25 13C15.9533 13 15.6633 12.9121 15.4166 12.7472C15.17 12.5824 14.9777 12.3481 14.8642 12.0741C14.7506 11.8 14.7209 11.4984 14.7788 11.2074C14.8367 10.9164 14.9796 10.6491 15.1893 10.4394C15.3991 10.2296 15.6664 10.0867 15.9574 10.0289C16.2483 9.97097 16.5499 10.0007 16.824 10.1142C17.0981 10.2277 17.3324 10.42 17.4972 10.6667C17.662 10.9133 17.75 11.2034 17.75 11.5C17.75 11.8979 17.592 12.2794 17.3107 12.5607C17.0294 12.842 16.6478 13 16.25 13Z" fill="#5D3ED3"/>
</svg>
