<svg width="22" height="22" viewBox="0 0 22 22" fill="none" xmlns="http://www.w3.org/2000/svg">
<path d="M20.8915 1.11863C20.6971 0.922058 20.4656 0.766114 20.2104 0.659885C19.9553 0.553657 19.6815 0.499267 19.4051 0.499883H13.6427C13.2647 0.500588 12.9023 0.650325 12.634 0.916602L1.11444 12.4338C0.721367 12.8277 0.50061 13.3614 0.50061 13.9179C0.50061 14.4743 0.721367 15.008 1.11444 15.4019L6.59881 20.8863C6.99279 21.2795 7.5267 21.5004 8.08334 21.5004C8.63999 21.5004 9.1739 21.2795 9.56787 20.8863L21.0827 9.37379C21.3495 9.10593 21.4998 8.74357 21.5008 8.36551V2.59988C21.5025 2.32491 21.4496 2.05235 21.3449 1.79805C21.2403 1.54375 21.0862 1.3128 20.8915 1.11863ZM17.0008 6.49988C16.7042 6.49988 16.4142 6.41191 16.1675 6.24709C15.9208 6.08226 15.7286 5.848 15.615 5.57391C15.5015 5.29982 15.4718 4.99822 15.5297 4.70725C15.5875 4.41628 15.7304 4.149 15.9402 3.93922C16.15 3.72944 16.4172 3.58658 16.7082 3.5287C16.9992 3.47083 17.3008 3.50053 17.5749 3.61406C17.849 3.72759 18.0832 3.91985 18.248 4.16653C18.4129 4.4132 18.5008 4.70321 18.5008 4.99988C18.5008 5.39771 18.3428 5.77924 18.0615 6.06054C17.7802 6.34185 17.3987 6.49988 17.0008 6.49988Z" fill="#5D3ED3"/>
</svg>
