<svg width="22" height="22" viewBox="0 0 22 22" fill="none" xmlns="http://www.w3.org/2000/svg">
<path d="M10.9995 13.25C12.2422 13.25 13.2495 12.2426 13.2495 11C13.2495 9.75736 12.2422 8.75 10.9995 8.75C9.75689 8.75 8.74953 9.75736 8.74953 11C8.74953 12.2426 9.75689 13.25 10.9995 13.25Z" fill="#5D3ED3"/>
<path d="M21.0491 13.0625L21.027 13.0447L19.5477 11.8845C19.454 11.8104 19.3792 11.7151 19.3295 11.6065C19.2798 11.4979 19.2566 11.379 19.2617 11.2597V10.7178C19.257 10.5992 19.2805 10.4812 19.3303 10.3735C19.3801 10.2658 19.4548 10.1714 19.5481 10.0981L21.027 8.9375L21.0491 8.91969C21.2771 8.72969 21.4302 8.46475 21.4809 8.17225C21.5315 7.87976 21.4765 7.57877 21.3256 7.32312L19.3236 3.85906C19.3213 3.85579 19.3193 3.85235 19.3175 3.84875C19.1658 3.59664 18.9306 3.40562 18.6527 3.30886C18.3749 3.2121 18.0719 3.21571 17.7964 3.31906L17.78 3.32516L16.0409 4.025C15.9312 4.06938 15.8124 4.08704 15.6945 4.07653C15.5766 4.06602 15.4628 4.02763 15.3627 3.96453C15.2089 3.86766 15.0527 3.77609 14.8939 3.68984C14.791 3.63403 14.7026 3.55481 14.6359 3.45856C14.5692 3.36232 14.5261 3.25176 14.51 3.13578L14.248 1.28L14.2423 1.24625C14.1853 0.958811 14.0311 0.699768 13.8055 0.512653C13.58 0.325538 13.2969 0.221757 13.0039 0.21875H8.99516C8.698 0.219701 8.41071 0.325492 8.1839 0.517486C7.9571 0.70948 7.80532 0.975359 7.75532 1.26828L7.7511 1.29453L7.49 3.15406C7.47399 3.2697 7.4312 3.38001 7.36504 3.4762C7.29887 3.57239 7.21117 3.6518 7.10891 3.70813C6.9486 3.79437 6.79204 3.88578 6.64016 3.98094C6.54016 4.04365 6.4267 4.08174 6.30912 4.09209C6.19153 4.10244 6.07317 4.08475 5.96375 4.04047L4.22328 3.33734L4.20688 3.33078C3.931 3.22731 3.62758 3.22384 3.34941 3.32096C3.07123 3.41808 2.83591 3.60965 2.68438 3.86234L2.67828 3.87266L0.673441 7.33906C0.52233 7.59497 0.467177 7.89629 0.517844 8.18913C0.568512 8.48197 0.721696 8.74724 0.950003 8.9375L0.972035 8.95531L2.45141 10.1155C2.54509 10.1896 2.61986 10.2849 2.66957 10.3935C2.71927 10.5021 2.7425 10.621 2.73735 10.7403V11.2822C2.74204 11.4008 2.71853 11.5188 2.66874 11.6265C2.61895 11.7342 2.5443 11.8286 2.45094 11.9019L0.972035 13.0625L0.950003 13.0803C0.721922 13.2703 0.568862 13.5353 0.518195 13.8277C0.467528 14.1202 0.522556 14.4212 0.673441 14.6769L2.67547 18.1409C2.67778 18.1442 2.67981 18.1477 2.68157 18.1512C2.83326 18.4034 3.06847 18.5944 3.34633 18.6911C3.6242 18.7879 3.92718 18.7843 4.20266 18.6809L4.21907 18.6748L5.95672 17.975C6.06649 17.9306 6.18522 17.913 6.30315 17.9235C6.42108 17.934 6.53482 17.9724 6.635 18.0355C6.78875 18.1327 6.945 18.2242 7.10375 18.3102C7.20668 18.366 7.29505 18.4452 7.36174 18.5414C7.42842 18.6377 7.47156 18.7482 7.48766 18.8642L7.74828 20.72L7.75391 20.7537C7.81105 21.0417 7.96571 21.3011 8.19182 21.4882C8.41792 21.6754 8.70165 21.7789 8.99516 21.7812H13.0039C13.3011 21.7803 13.5884 21.6745 13.8152 21.4825C14.042 21.2905 14.1937 21.0246 14.2438 20.7317L14.248 20.7055L14.5091 18.8459C14.5253 18.7301 14.5685 18.6196 14.6351 18.5234C14.7016 18.4272 14.7898 18.3479 14.8925 18.2919C15.0528 18.2056 15.2094 18.1142 15.3613 18.0191C15.4613 17.9564 15.5747 17.9183 15.6923 17.9079C15.8099 17.8976 15.9282 17.9153 16.0377 17.9595L17.7781 18.6603L17.7945 18.6669C18.0704 18.7705 18.3739 18.7741 18.6521 18.677C18.9303 18.5798 19.1656 18.3881 19.317 18.1353C19.3189 18.1318 19.3209 18.1283 19.3231 18.125L21.3252 14.6614C21.4765 14.4055 21.5319 14.1041 21.4813 13.8112C21.4307 13.5182 21.2775 13.2528 21.0491 13.0625ZM14.7453 11.1763C14.7112 11.9021 14.4669 12.6025 14.0421 13.1921C13.6173 13.7817 13.0304 14.2352 12.3526 14.4974C11.6749 14.7597 10.9356 14.8193 10.2245 14.6692C9.51353 14.519 8.86147 14.1655 8.34765 13.6516C7.83382 13.1377 7.48038 12.4856 7.3303 11.7746C7.18022 11.0635 7.23996 10.3242 7.50227 9.64651C7.76458 8.96881 8.21814 8.38192 8.80781 7.95721C9.39748 7.5325 10.0979 7.28827 10.8238 7.25422C11.3449 7.23127 11.8651 7.31702 12.3513 7.50601C12.8375 7.695 13.2791 7.98309 13.6479 8.35197C14.0167 8.72085 14.3048 9.16244 14.4937 9.64867C14.6826 10.1349 14.7683 10.6551 14.7453 11.1763Z" fill="#5D3ED3"/>
</svg>
