<svg width="20" height="18" viewBox="0 0 20 18" fill="none" xmlns="http://www.w3.org/2000/svg">
<path d="M15.25 1.5H4.75C4.55109 1.5 4.36032 1.42098 4.21967 1.28033C4.07902 1.13968 4 0.948912 4 0.75C4 0.551088 4.07902 0.360322 4.21967 0.21967C4.36032 0.0790178 4.55109 0 4.75 0H15.25C15.4489 0 15.6397 0.0790178 15.7803 0.21967C15.921 0.360322 16 0.551088 16 0.75C16 0.948912 15.921 1.13968 15.7803 1.28033C15.6397 1.42098 15.4489 1.5 15.25 1.5Z" fill="#5D3ED3"/>
<path d="M16.75 3.75H3.25C3.05109 3.75 2.86032 3.67098 2.71967 3.53033C2.57902 3.38968 2.5 3.19891 2.5 3C2.5 2.80109 2.57902 2.61032 2.71967 2.46967C2.86032 2.32902 3.05109 2.25 3.25 2.25H16.75C16.9489 2.25 17.1397 2.32902 17.2803 2.46967C17.421 2.61032 17.5 2.80109 17.5 3C17.5 3.19891 17.421 3.38968 17.2803 3.53033C17.1397 3.67098 16.9489 3.75 16.75 3.75Z" fill="#5D3ED3"/>
<path d="M17.6467 18H2.35328C1.79565 17.9994 1.26103 17.7776 0.866722 17.3833C0.472415 16.989 0.25062 16.4544 0.25 15.8967V6.60328C0.25062 6.04565 0.472415 5.51103 0.866722 5.11672C1.26103 4.72241 1.79565 4.50062 2.35328 4.5H17.6467C18.2044 4.50062 18.739 4.72241 19.1333 5.11672C19.5276 5.51103 19.7494 6.04565 19.75 6.60328V15.8967C19.7494 16.4544 19.5276 16.989 19.1333 17.3833C18.739 17.7776 18.2044 17.9994 17.6467 18Z" fill="#5D3ED3"/>
</svg>
