<svg width="24" height="22" viewBox="0 0 24 22" fill="none" xmlns="http://www.w3.org/2000/svg">
<path d="M12.2603 3.7475C12.1905 3.68074 12.0976 3.64348 12.0011 3.64348C11.9045 3.64348 11.8116 3.68074 11.7418 3.7475L3.11215 11.9914C3.0755 12.0265 3.04635 12.0686 3.02644 12.1152C3.00654 12.1619 2.99631 12.2121 2.99637 12.2628L2.99496 20C2.99496 20.3978 3.153 20.7794 3.4343 21.0607C3.71561 21.342 4.09714 21.5 4.49496 21.5H8.99965C9.19856 21.5 9.38933 21.421 9.52998 21.2803C9.67063 21.1397 9.74965 20.9489 9.74965 20.75V14.375C9.74965 14.2755 9.78916 14.1802 9.85949 14.1098C9.92981 14.0395 10.0252 14 10.1247 14H13.8747C13.9741 14 14.0695 14.0395 14.1398 14.1098C14.2101 14.1802 14.2497 14.2755 14.2497 14.375V20.75C14.2497 20.9489 14.3287 21.1397 14.4693 21.2803C14.61 21.421 14.8007 21.5 14.9997 21.5H19.5025C19.9003 21.5 20.2818 21.342 20.5631 21.0607C20.8444 20.7794 21.0025 20.3978 21.0025 20V12.2628C21.0025 12.2121 20.9923 12.1619 20.9724 12.1152C20.9525 12.0686 20.9233 12.0265 20.8867 11.9914L12.2603 3.7475Z" fill="#5D3ED3"/>
<path d="M23.0111 10.4445L19.5048 7.09016V2C19.5048 1.80109 19.4258 1.61032 19.2851 1.46967C19.1445 1.32902 18.9537 1.25 18.7548 1.25H16.5048C16.3059 1.25 16.1151 1.32902 15.9745 1.46967C15.8338 1.61032 15.7548 1.80109 15.7548 2V3.5L13.0398 0.904062C12.7857 0.647187 12.4079 0.5 11.9997 0.5C11.5928 0.5 11.2159 0.647188 10.9618 0.904531L0.991527 10.4436C0.699964 10.7248 0.663402 11.1875 0.928714 11.4922C0.995338 11.5691 1.07691 11.6316 1.16848 11.676C1.26004 11.7204 1.35968 11.7457 1.46133 11.7503C1.56297 11.755 1.6645 11.7389 1.75973 11.7031C1.85497 11.6672 1.94191 11.6124 2.01528 11.5419L11.7418 2.2475C11.8116 2.18074 11.9045 2.14348 12.0011 2.14348C12.0976 2.14348 12.1905 2.18074 12.2603 2.2475L21.9878 11.5419C22.1311 11.6793 22.323 11.7543 22.5215 11.7504C22.72 11.7465 22.9088 11.6641 23.0467 11.5212C23.3345 11.2231 23.3106 10.7309 23.0111 10.4445Z" fill="#5D3ED3"/>
</svg>
