<svg width="32" height="28" viewBox="0 0 32 28" fill="none" xmlns="http://www.w3.org/2000/svg">
<path d="M19.1386 28H12.0101C10.0073 28 8.05962 27.3544 6.46487 26.1619C4.87012 24.9694 3.71606 23.2956 3.17918 21.3965L0.344561 11.4583C-0.0731708 10.0024 -0.111723 8.46648 0.232459 6.9921C0.576642 5.51771 1.29248 4.15237 2.31395 3.02198C3.33542 1.8916 4.62963 1.03256 6.07723 0.524116C7.52483 0.0156682 9.0792 -0.125827 10.597 0.112681L24.2501 2.21754C25.5296 2.41451 26.7521 2.87608 27.8372 3.57185C28.9223 4.26762 29.8452 5.18179 30.5453 6.25413C31.2453 7.32647 31.7066 8.53264 31.8986 9.79317C32.0907 11.0537 32.0092 12.34 31.6595 13.5673L29.8229 20.0222C29.555 20.9633 28.9818 21.7925 28.1907 22.3834C27.3997 22.9742 26.434 23.2944 25.441 23.295H23.9272L23.5079 24.7272C23.24 25.6683 22.6668 26.4975 21.8757 27.0884C21.0847 27.6792 20.119 27.9993 19.126 28H19.1386ZM9.13774 2.76645C8.38747 2.77321 7.64457 2.91302 6.94469 3.17917C5.9791 3.54078 5.11591 4.12542 4.42778 4.88387C3.73965 5.64233 3.24672 6.55239 2.99048 7.53747C2.72533 8.58916 2.74703 9.69111 3.05338 10.7319L5.87122 20.6619C6.24655 21.9763 7.04759 23.1342 8.15259 23.9595C9.25759 24.7849 10.6061 25.2327 11.9933 25.2348H19.1218C19.4998 25.2346 19.8675 25.1138 20.1699 24.8906C20.4723 24.6674 20.693 24.3537 20.7991 23.9966L20.992 23.3115H12.1275C11.1341 23.3104 10.1682 22.9902 9.37652 22.3995C8.58487 21.8087 8.01076 20.9798 7.7414 20.0387L5.03258 10.4347C4.82847 9.71358 4.81114 8.95358 4.98217 8.22413C5.1532 7.49467 5.50714 6.819 6.01168 6.25879C6.51622 5.69858 7.15529 5.27168 7.87055 5.01706C8.58581 4.76244 9.35447 4.68821 10.1064 4.80115L23.3234 6.83998C23.9588 6.93723 24.5661 7.16598 25.1052 7.51112C25.6442 7.85626 26.1028 8.30996 26.4507 8.8423C26.7986 9.37463 27.0279 9.97351 27.1234 10.5994C27.219 11.2254 27.1786 11.8641 27.005 12.4736L24.7155 20.5298H25.441C25.819 20.5296 26.1867 20.4088 26.4891 20.1856C26.7915 19.9624 27.0122 19.6487 27.1183 19.2917L28.9339 12.8203C29.1853 11.9524 29.2397 11.0408 29.0933 10.15C28.8814 8.84701 28.2569 7.64316 27.3089 6.7101C26.3609 5.77704 25.1378 5.16241 23.814 4.95386L10.1609 2.84487C9.82245 2.79242 9.48035 2.7662 9.13774 2.76645ZM9.38933 7.51271C9.12058 7.51245 8.85543 7.57347 8.61465 7.69097C8.37387 7.80847 8.16401 7.97926 8.00153 8.18996C7.83905 8.40066 7.72836 8.64554 7.67813 8.90539C7.62791 9.16525 7.63952 9.43302 7.71205 9.68773L10.4376 19.2752C10.5431 19.6326 10.7637 19.9466 11.0662 20.1699C11.3687 20.3932 11.7368 20.5138 12.1149 20.5133H21.8055L24.3214 11.71C24.39 11.4777 24.4068 11.2335 24.3706 10.9941C24.3344 10.7548 24.2461 10.526 24.1117 10.3233C23.9796 10.119 23.8046 9.94475 23.5985 9.81236C23.3924 9.67997 23.1599 9.59245 22.9167 9.55566L9.67028 7.53334C9.57744 7.51827 9.48342 7.51136 9.38933 7.51271Z" fill="#5D3ED3"/>
</svg>
