<svg width="22" height="18" viewBox="0 0 22 18" fill="none" xmlns="http://www.w3.org/2000/svg">
<path d="M21.4839 9.59531L19.9839 2.47922C19.6943 0.926719 18.5786 0 16.9999 0H4.99988C4.21238 0 3.54676 0.219844 3.02644 0.653438C2.50613 1.08703 2.16535 1.69922 2.01488 2.47641L0.514882 9.59531C0.504747 9.64625 0.499723 9.69807 0.499882 9.75V15C0.499882 15.7956 0.815952 16.5587 1.37856 17.1213C1.94117 17.6839 2.70423 18 3.49988 18H18.4999C19.2955 18 20.0586 17.6839 20.6212 17.1213C21.1838 16.5587 21.4999 15.7956 21.4999 15V9.75C21.4997 9.69804 21.4944 9.64622 21.4839 9.59531ZM3.48394 2.77969C3.48394 2.775 3.48394 2.77078 3.48394 2.76656C3.65035 1.90266 4.13129 1.50094 4.99754 1.50094H16.9999C17.8722 1.50094 18.3532 1.90172 18.5125 2.76234C18.5125 2.76844 18.5149 2.77453 18.5158 2.78062L19.7782 8.775C19.7839 8.80231 19.7834 8.83056 19.7769 8.85767C19.7703 8.88479 19.7577 8.91009 19.7401 8.93174C19.7225 8.95339 19.7003 8.97084 19.6751 8.98281C19.6499 8.99478 19.6223 9.00097 19.5944 9.00094H13.9999C13.8021 8.99994 13.6121 9.07748 13.4714 9.21652C13.3308 9.35557 13.2511 9.54474 13.2499 9.7425C13.2499 10.3392 13.0128 10.9115 12.5909 11.3335C12.1689 11.7554 11.5966 11.9925 10.9999 11.9925C10.4031 11.9925 9.83085 11.7554 9.40889 11.3335C8.98693 10.9115 8.74988 10.3392 8.74988 9.7425C8.74939 9.6445 8.7296 9.54756 8.69164 9.45721C8.65369 9.36685 8.5983 9.28486 8.52866 9.21592C8.45902 9.14697 8.37647 9.09241 8.28575 9.05537C8.19502 9.01832 8.09788 8.99951 7.99988 9H2.40535C2.37745 9.00003 2.34989 8.99384 2.32468 8.98187C2.29947 8.9699 2.27726 8.95245 2.25965 8.93081C2.24205 8.90916 2.22949 8.88385 2.22291 8.85673C2.21633 8.82962 2.21588 8.80137 2.2216 8.77406L3.48394 2.77969Z" fill="#5D3ED3"/>
</svg>
